<?xml version="1.0" encoding="utf-8"?>
<!-- Generator: Adobe Illustrator 26.0.0, SVG Export Plug-In . SVG Version: 6.00 Build 0)  -->
<svg version="1.1" id="Layer_1" xmlns="http://www.w3.org/2000/svg" xmlns:xlink="http://www.w3.org/1999/xlink" x="0px" y="0px"
	 viewBox="0 0 60.95 54.59" style="enable-background:new 0 0 60.95 54.59;" xml:space="preserve">
<style type="text/css">
	.st0{fill:#BA2032;}
	.st1{fill:#1B76B7;}
	.st2{fill:#2AA5DE;}
	.st3{fill:#37AE4A;}
</style>
<g>
	<path id="XMLID_112_" class="st0" d="M48.21,49.8c0,0,0.28-0.21,0.79-0.61c0.52-0.4,1.24-1.02,2.13-1.85
		C52,46.49,53,45.41,54,44.07c1-1.34,1.98-2.96,2.82-4.82c0.1-0.23,0.2-0.47,0.3-0.71c0.05-0.12,0.1-0.24,0.15-0.36
		c0.05-0.12,0.09-0.25,0.14-0.37c0.09-0.25,0.18-0.5,0.28-0.75c0.08-0.26,0.16-0.52,0.25-0.78c0.04-0.13,0.08-0.26,0.12-0.39
		c0.04-0.13,0.07-0.27,0.11-0.4c0.07-0.27,0.15-0.54,0.21-0.81c0.12-0.55,0.25-1.11,0.34-1.68c0.11-0.57,0.16-1.15,0.24-1.74
		c0.04-0.59,0.1-1.19,0.11-1.8c0-0.15,0.01-0.3,0.01-0.46c0.01-0.15,0-0.31,0-0.46c-0.01-0.31,0-0.61-0.02-0.92
		c-0.02-0.31-0.04-0.62-0.06-0.93c-0.02-0.31-0.07-0.62-0.1-0.93c-0.02-0.16-0.03-0.31-0.06-0.47c-0.02-0.16-0.05-0.31-0.08-0.47
		c-0.05-0.31-0.09-0.63-0.17-0.94c-0.07-0.31-0.13-0.63-0.2-0.94c-0.08-0.31-0.16-0.62-0.24-0.93c-0.35-1.24-0.8-2.47-1.34-3.67
		c-0.14-0.3-0.28-0.59-0.43-0.89c-0.15-0.3-0.31-0.58-0.47-0.87c-0.08-0.14-0.15-0.29-0.24-0.43l-0.26-0.42l-0.26-0.43l-0.06-0.11
		l-0.02-0.03c0.02,0.04,0,0,0,0l-0.04-0.05l-0.15-0.22c-0.19-0.28-0.39-0.58-0.58-0.86l-0.59-0.78c-0.09-0.13-0.21-0.26-0.31-0.39
		l-0.32-0.38c-0.11-0.13-0.21-0.26-0.32-0.38l-0.34-0.37c-1.79-1.98-3.94-3.62-6.23-4.9c-2.3-1.26-4.77-2.16-7.23-2.66
		c-1.23-0.25-2.46-0.41-3.67-0.47c-1.21-0.06-2.4-0.04-3.56,0.06c-0.14,0.01-0.29,0.02-0.43,0.04C31.14,3.82,31,3.84,30.86,3.85
		c-0.28,0.03-0.57,0.06-0.84,0.12c-0.28,0.05-0.55,0.09-0.83,0.14c-0.27,0.06-0.54,0.12-0.81,0.17c-0.13,0.03-0.27,0.06-0.4,0.08
		c-0.13,0.04-0.26,0.07-0.39,0.1c-0.26,0.07-0.52,0.14-0.77,0.21c-0.25,0.08-0.5,0.16-0.75,0.24C25.81,5,25.56,5.07,25.33,5.16
		c-1.92,0.69-3.6,1.55-5.03,2.43c-1.41,0.89-2.58,1.79-3.49,2.59c-0.45,0.4-0.85,0.78-1.19,1.1c-0.33,0.33-0.61,0.62-0.84,0.86
		c-0.22,0.24-0.39,0.43-0.5,0.55c-0.11,0.13-0.17,0.19-0.17,0.19s0.05-0.07,0.14-0.21c0.09-0.14,0.23-0.35,0.43-0.61
		c0.39-0.53,0.97-1.3,1.81-2.2c0.84-0.9,1.92-1.94,3.32-2.98C20,6.75,20.17,6.63,20.35,6.5l0.13-0.1l0.14-0.1
		c0.1-0.06,0.19-0.13,0.29-0.19c0.19-0.13,0.39-0.26,0.59-0.39c0.2-0.13,0.41-0.25,0.62-0.37c0.21-0.12,0.42-0.25,0.64-0.38
		c0.22-0.11,0.45-0.23,0.67-0.35c0.45-0.24,0.93-0.45,1.42-0.68c0.24-0.12,0.5-0.21,0.75-0.31c0.26-0.1,0.51-0.2,0.77-0.3
		c0.27-0.09,0.53-0.18,0.8-0.27c0.14-0.04,0.27-0.09,0.41-0.14c0.14-0.04,0.28-0.08,0.42-0.12c0.28-0.08,0.56-0.16,0.85-0.23
		c0.29-0.06,0.58-0.13,0.87-0.19c0.29-0.07,0.59-0.12,0.89-0.17c0.15-0.03,0.3-0.05,0.45-0.08c0.15-0.03,0.3-0.05,0.46-0.07
		c0.31-0.04,0.62-0.07,0.93-0.11c0.31-0.04,0.63-0.05,0.94-0.07c0.16-0.01,0.32-0.02,0.48-0.03c0.16,0,0.32-0.01,0.48-0.01
		c0.32,0,0.65-0.02,0.97-0.01c0.33,0.01,0.65,0.02,0.98,0.03c0.33,0.02,0.66,0.05,0.99,0.08c0.33,0.02,0.66,0.07,1,0.11
		c0.33,0.04,0.67,0.08,1,0.15c1.34,0.21,2.68,0.57,4.01,1.01c1.32,0.45,2.64,1,3.9,1.69c1.26,0.68,2.48,1.46,3.63,2.35
		c1.15,0.88,2.22,1.88,3.21,2.95l0.37,0.4c0.12,0.13,0.23,0.28,0.35,0.42l0.35,0.42c0.12,0.14,0.23,0.28,0.34,0.43l0.66,0.89
		c0.21,0.29,0.39,0.58,0.59,0.87l0.14,0.22l0.04,0.05l0.03,0.05l0.02,0.03l0.07,0.12l0.28,0.47l0.28,0.47
		c0.09,0.15,0.17,0.32,0.26,0.48c0.17,0.32,0.34,0.63,0.5,0.96c0.15,0.33,0.3,0.65,0.45,0.98c0.57,1.31,1.03,2.66,1.38,4.02
		c0.35,1.36,0.57,2.73,0.69,4.08c0.13,1.35,0.13,2.69,0.04,3.99c-0.03,0.65-0.12,1.29-0.19,1.92c-0.11,0.63-0.19,1.25-0.34,1.85
		c-0.52,2.42-1.39,4.61-2.38,6.51c-1.01,1.9-2.17,3.49-3.32,4.78c-1.14,1.3-2.27,2.3-3.23,3.07c-0.5,0.37-0.92,0.71-1.33,0.97
		c-0.4,0.26-0.73,0.5-1.02,0.66C48.52,49.63,48.21,49.8,48.21,49.8z"/>
	<path id="XMLID_111_" class="st1" d="M24.66,52.85c0,0,0.27,0.06,0.78,0.17c0.25,0.06,0.57,0.11,0.94,0.18
		c0.18,0.04,0.39,0.06,0.6,0.09c0.21,0.03,0.44,0.07,0.68,0.1c0.96,0.13,2.13,0.21,3.46,0.21c1.33,0,2.83-0.1,4.44-0.38
		c0.4-0.06,0.81-0.15,1.22-0.23c0.21-0.04,0.41-0.1,0.62-0.15c0.21-0.05,0.42-0.1,0.63-0.16c0.84-0.22,1.7-0.51,2.56-0.83
		c1.72-0.66,3.47-1.54,5.13-2.66c1.67-1.11,3.24-2.47,4.65-4.02c0.35-0.39,0.7-0.79,1.02-1.2l0.25-0.31l0.23-0.31
		c0.16-0.22,0.33-0.44,0.49-0.67c0.09-0.11,0.15-0.22,0.22-0.33l0.21-0.32c0.14-0.22,0.29-0.42,0.42-0.66l0.41-0.69l0.1-0.17
		l0.09-0.18l0.19-0.35c0.51-0.93,0.94-1.91,1.32-2.89c0.17-0.5,0.37-0.99,0.51-1.5c0.07-0.25,0.16-0.5,0.23-0.76
		c0.07-0.25,0.13-0.51,0.2-0.76c0.5-2.04,0.71-4.1,0.72-6.1c-0.02-2-0.26-3.94-0.67-5.74c-0.11-0.45-0.22-0.89-0.34-1.32
		c-0.14-0.43-0.26-0.85-0.4-1.27c-0.28-0.82-0.6-1.61-0.93-2.35c-0.33-0.74-0.7-1.43-1.06-2.08c-0.19-0.32-0.37-0.64-0.55-0.94
		c-0.19-0.3-0.38-0.58-0.56-0.86c-0.18-0.28-0.38-0.53-0.56-0.79c-0.09-0.13-0.18-0.25-0.27-0.37c-0.09-0.12-0.18-0.23-0.27-0.35
		c-0.18-0.23-0.35-0.45-0.52-0.65c-0.17-0.2-0.34-0.39-0.5-0.58c-0.16-0.18-0.31-0.36-0.46-0.51c-0.15-0.16-0.29-0.3-0.42-0.44
		c-0.13-0.14-0.25-0.27-0.36-0.38C49,9.22,48.89,9.12,48.8,9.03c-0.37-0.36-0.57-0.56-0.57-0.56s0.23,0.16,0.66,0.46
		c0.11,0.08,0.23,0.16,0.36,0.25c0.13,0.09,0.27,0.21,0.42,0.32c0.3,0.24,0.65,0.5,1.01,0.84c0.18,0.16,0.38,0.34,0.58,0.52
		c0.2,0.19,0.4,0.39,0.61,0.6c0.11,0.1,0.21,0.21,0.32,0.32c0.11,0.11,0.21,0.23,0.32,0.35c0.21,0.24,0.44,0.48,0.66,0.75
		c0.89,1.05,1.8,2.33,2.64,3.82c0.83,1.49,1.59,3.2,2.15,5.1c0.55,1.89,0.92,3.96,1.02,6.12C59,29,59,30.1,58.89,31.22
		c-0.03,0.56-0.12,1.11-0.19,1.67c-0.04,0.28-0.1,0.56-0.15,0.84c-0.05,0.28-0.1,0.56-0.17,0.84c-0.07,0.28-0.13,0.56-0.2,0.83
		c-0.07,0.28-0.16,0.55-0.23,0.83c-0.15,0.56-0.35,1.1-0.54,1.64c-0.41,1.08-0.87,2.15-1.42,3.17l-0.21,0.38l-0.1,0.19l-0.11,0.19
		l-0.45,0.74c-0.14,0.25-0.32,0.49-0.48,0.74c-0.16,0.24-0.33,0.5-0.5,0.72c-0.17,0.22-0.33,0.44-0.5,0.66l-0.13,0.17l-0.06,0.08
		l-0.03,0.04c0,0-0.04,0.06-0.03,0.04l-0.02,0.02l-0.28,0.33c-0.36,0.45-0.75,0.87-1.13,1.29c-0.78,0.83-1.62,1.6-2.48,2.3
		c-0.22,0.17-0.43,0.35-0.66,0.52c-0.22,0.17-0.44,0.33-0.67,0.49c-0.45,0.31-0.9,0.62-1.37,0.9c-1.84,1.14-3.77,1.99-5.65,2.58
		c-1.88,0.59-3.72,0.93-5.43,1.07c-0.21,0.02-0.42,0.04-0.63,0.05c-0.21,0.01-0.42,0.02-0.62,0.03c-0.1,0-0.2,0.01-0.3,0.01
		c-0.1,0-0.2,0-0.3,0c-0.2,0-0.4,0-0.59,0c-0.39-0.01-0.77-0.02-1.13-0.04c-0.37-0.03-0.72-0.05-1.06-0.09
		c-1.37-0.15-2.55-0.39-3.5-0.64c-0.95-0.24-1.68-0.5-2.17-0.68C24.92,52.95,24.66,52.85,24.66,52.85z"/>
	<path id="XMLID_110_" class="st1" d="M6.39,9.14c0,0-0.19,0.27-0.54,0.77c-0.36,0.5-0.83,1.26-1.39,2.25
		c-0.54,1-1.13,2.25-1.66,3.73C2.28,17.37,1.85,19.1,1.61,21c-0.02,0.24-0.05,0.48-0.07,0.72c-0.01,0.12-0.02,0.24-0.04,0.37
		c-0.01,0.12-0.01,0.25-0.02,0.37c-0.01,0.25-0.03,0.5-0.04,0.75c0,0.25,0,0.51,0,0.76c0,0.13,0,0.26,0,0.39
		c0,0.13,0.01,0.26,0.02,0.39c0.01,0.26,0.02,0.52,0.03,0.79c0.05,0.53,0.08,1.06,0.17,1.6c0.06,0.54,0.18,1.08,0.27,1.63
		c0.13,0.54,0.24,1.1,0.41,1.64c0.04,0.14,0.08,0.27,0.12,0.41c0.04,0.14,0.09,0.27,0.13,0.41c0.09,0.27,0.17,0.55,0.27,0.82
		c0.1,0.27,0.21,0.54,0.31,0.82c0.11,0.27,0.23,0.54,0.35,0.81c0.06,0.13,0.12,0.27,0.18,0.41c0.07,0.13,0.13,0.26,0.2,0.4
		c0.13,0.27,0.26,0.54,0.41,0.8c0.15,0.26,0.29,0.53,0.44,0.79c0.16,0.25,0.32,0.51,0.48,0.77c0.66,1.02,1.41,1.99,2.22,2.92
		c0.21,0.23,0.42,0.45,0.63,0.68c0.21,0.22,0.44,0.43,0.66,0.65c0.11,0.11,0.22,0.22,0.34,0.32l0.35,0.31l0.35,0.31l0.09,0.08
		l0.02,0.02c-0.03-0.03,0,0,0,0l0.05,0.04l0.19,0.15c0.25,0.2,0.51,0.41,0.76,0.61l0.75,0.53c0.12,0.09,0.26,0.17,0.39,0.26
		l0.39,0.25c0.13,0.08,0.26,0.17,0.4,0.25l0.41,0.23c2.16,1.27,4.54,2.15,6.95,2.66c2.42,0.49,4.88,0.62,7.23,0.37
		c1.17-0.12,2.32-0.32,3.43-0.6c1.1-0.29,2.17-0.63,3.18-1.04c0.13-0.05,0.25-0.1,0.38-0.16c0.12-0.06,0.25-0.11,0.37-0.16
		c0.25-0.11,0.49-0.21,0.73-0.34c0.24-0.12,0.47-0.24,0.7-0.36c0.23-0.13,0.45-0.25,0.68-0.38c0.11-0.06,0.22-0.12,0.33-0.19
		c0.11-0.07,0.21-0.14,0.32-0.2c0.21-0.13,0.43-0.27,0.64-0.4c0.2-0.14,0.41-0.28,0.6-0.42c0.2-0.14,0.4-0.27,0.59-0.43
		c1.53-1.16,2.8-2.39,3.84-3.58c1.02-1.19,1.81-2.32,2.41-3.29c0.3-0.49,0.54-0.93,0.76-1.32c0.21-0.39,0.38-0.73,0.51-1.01
		c0.13-0.28,0.23-0.49,0.29-0.64c0.07-0.14,0.1-0.22,0.1-0.22s-0.02,0.08-0.07,0.23c-0.04,0.15-0.11,0.38-0.21,0.67
		c-0.2,0.58-0.51,1.44-1.01,2.48c-0.5,1.04-1.18,2.28-2.15,3.6c-0.12,0.17-0.24,0.33-0.37,0.49l-0.09,0.12l-0.1,0.13
		c-0.07,0.08-0.14,0.17-0.2,0.25c-0.14,0.17-0.28,0.34-0.42,0.51c-0.14,0.17-0.3,0.33-0.45,0.51c-0.15,0.17-0.31,0.34-0.47,0.51
		c-0.17,0.17-0.34,0.33-0.51,0.5c-0.34,0.35-0.71,0.67-1.09,1c-0.19,0.17-0.39,0.33-0.59,0.49c-0.2,0.16-0.41,0.32-0.61,0.48
		c-0.21,0.15-0.43,0.31-0.65,0.46c-0.11,0.08-0.22,0.16-0.33,0.24c-0.11,0.07-0.23,0.15-0.34,0.22c-0.23,0.15-0.46,0.3-0.7,0.44
		c-0.24,0.14-0.48,0.28-0.73,0.42c-0.24,0.15-0.5,0.27-0.75,0.4c-0.13,0.06-0.26,0.13-0.39,0.19c-0.13,0.07-0.26,0.13-0.39,0.19
		c-0.27,0.12-0.53,0.24-0.8,0.36c-0.27,0.12-0.55,0.22-0.83,0.33c-0.14,0.05-0.28,0.11-0.42,0.16c-0.14,0.05-0.29,0.09-0.43,0.14
		c-0.29,0.09-0.57,0.2-0.87,0.28c-0.3,0.08-0.59,0.17-0.89,0.25c-0.3,0.08-0.6,0.14-0.91,0.21c-0.3,0.07-0.61,0.12-0.93,0.18
		c-0.31,0.05-0.62,0.11-0.94,0.15c-1.26,0.18-2.56,0.24-3.88,0.2c-1.31-0.04-2.65-0.16-3.97-0.43c-1.32-0.26-2.63-0.62-3.91-1.1
		c-1.28-0.47-2.52-1.07-3.7-1.75l-0.44-0.26c-0.15-0.08-0.29-0.18-0.43-0.27l-0.43-0.28c-0.14-0.1-0.29-0.18-0.43-0.29L9.6,44.56
		c-0.27-0.21-0.51-0.41-0.77-0.61l-0.19-0.15l-0.05-0.04l-0.04-0.04L8.53,43.7l-0.1-0.09l-0.38-0.34l-0.38-0.34
		c-0.13-0.11-0.24-0.24-0.36-0.35c-0.24-0.24-0.48-0.47-0.71-0.72c-0.23-0.25-0.45-0.5-0.68-0.75c-0.88-1.02-1.67-2.1-2.36-3.22
		c-0.69-1.12-1.27-2.29-1.75-3.47c-0.49-1.18-0.87-2.38-1.15-3.57c-0.15-0.59-0.25-1.19-0.36-1.78c-0.08-0.59-0.17-1.18-0.21-1.76
		c-0.21-2.32-0.04-4.52,0.32-6.5c0.38-1.98,0.98-3.73,1.64-5.22c0.66-1.49,1.4-2.69,2.04-3.65c0.34-0.47,0.63-0.9,0.92-1.24
		c0.29-0.35,0.52-0.65,0.73-0.87C6.17,9.38,6.39,9.14,6.39,9.14z"/>
	<path id="XMLID_109_" class="st0" d="M26.74,0.08c0,0-0.26,0.02-0.75,0.07c-0.25,0.02-0.54,0.06-0.89,0.1
		c-0.17,0.02-0.36,0.05-0.56,0.08c-0.2,0.03-0.41,0.06-0.64,0.1c-0.89,0.15-1.97,0.41-3.16,0.77c-1.2,0.37-2.51,0.88-3.88,1.57
		c-0.34,0.17-0.68,0.36-1.03,0.55c-0.17,0.1-0.34,0.2-0.52,0.3c-0.17,0.1-0.35,0.21-0.52,0.32c-0.7,0.43-1.38,0.93-2.07,1.46
		c-1.36,1.08-2.68,2.35-3.86,3.82c-1.19,1.46-2.21,3.12-3.05,4.9c-0.2,0.45-0.41,0.9-0.58,1.36l-0.14,0.35l-0.12,0.34
		c-0.08,0.24-0.17,0.49-0.26,0.74c-0.05,0.12-0.07,0.24-0.11,0.35l-0.1,0.35c-0.07,0.24-0.14,0.46-0.2,0.71l-0.17,0.73l-0.04,0.18
		l-0.03,0.18L3.99,19.8c-0.2,0.98-0.31,1.97-0.38,2.96c-0.02,0.5-0.05,0.99-0.04,1.49c0,0.25-0.01,0.49,0.01,0.74
		c0.01,0.25,0.03,0.49,0.04,0.74c0.12,1.96,0.5,3.88,1.05,5.68c0.57,1.79,1.33,3.47,2.2,4.97c0.22,0.37,0.45,0.74,0.67,1.09
		c0.24,0.35,0.47,0.69,0.71,1.02c0.48,0.66,0.98,1.28,1.49,1.85c0.5,0.58,1.02,1.09,1.53,1.57c0.26,0.23,0.51,0.47,0.76,0.69
		c0.26,0.21,0.5,0.42,0.74,0.62c0.24,0.2,0.49,0.37,0.72,0.55c0.12,0.09,0.23,0.18,0.35,0.26c0.12,0.08,0.23,0.16,0.34,0.24
		c0.22,0.15,0.44,0.31,0.65,0.44c0.21,0.13,0.42,0.26,0.61,0.38c0.19,0.12,0.37,0.23,0.55,0.33c0.18,0.1,0.34,0.19,0.5,0.28
		c0.15,0.08,0.3,0.17,0.43,0.24c0.13,0.07,0.26,0.13,0.37,0.18c0.44,0.22,0.67,0.34,0.67,0.34s-0.25-0.08-0.72-0.23
		c-0.12-0.04-0.25-0.08-0.39-0.13c-0.14-0.05-0.3-0.11-0.46-0.17c-0.33-0.13-0.72-0.27-1.14-0.47c-0.21-0.1-0.43-0.2-0.66-0.3
		c-0.23-0.11-0.46-0.24-0.71-0.37c-0.12-0.07-0.25-0.13-0.38-0.2c-0.13-0.07-0.25-0.15-0.38-0.22c-0.26-0.16-0.53-0.31-0.8-0.48
		c-1.09-0.7-2.26-1.59-3.43-2.69c-1.16-1.11-2.32-2.43-3.35-3.98C4.5,35.67,3.6,33.91,2.9,32c-0.33-0.96-0.64-1.95-0.85-2.98
		c-0.13-0.51-0.2-1.03-0.29-1.55c-0.04-0.26-0.07-0.53-0.1-0.79c-0.03-0.26-0.07-0.53-0.08-0.8c-0.02-0.27-0.04-0.54-0.05-0.8
		c-0.02-0.27-0.01-0.54-0.02-0.81c-0.02-0.54,0.01-1.08,0.03-1.62c0.07-1.08,0.18-2.17,0.39-3.24L2.01,19l0.04-0.2l0.05-0.2
		l0.19-0.79c0.06-0.26,0.15-0.53,0.23-0.8c0.08-0.26,0.16-0.54,0.24-0.79c0.09-0.25,0.18-0.49,0.26-0.73l0.07-0.18l0.03-0.09
		l0.02-0.05c0,0,0.02-0.06,0.02-0.05l0.01-0.02l0.15-0.37c0.2-0.5,0.43-0.99,0.66-1.47c0.47-0.96,1.01-1.88,1.59-2.76
		c0.15-0.22,0.29-0.44,0.44-0.65c0.15-0.21,0.31-0.42,0.46-0.63c0.32-0.41,0.64-0.81,0.98-1.19c1.33-1.54,2.83-2.83,4.35-3.89
		c1.53-1.05,3.08-1.87,4.57-2.47c0.19-0.07,0.37-0.15,0.55-0.22c0.18-0.07,0.37-0.13,0.55-0.2c0.09-0.03,0.18-0.06,0.27-0.09
		c0.09-0.03,0.18-0.06,0.27-0.09c0.18-0.06,0.35-0.11,0.53-0.16c0.35-0.1,0.69-0.19,1.03-0.28c0.34-0.08,0.66-0.16,0.98-0.22
		c1.27-0.25,2.39-0.36,3.32-0.4c0.92-0.05,1.65-0.02,2.14,0.01C26.48,0.06,26.74,0.08,26.74,0.08z"/>
	<path id="XMLID_108_" class="st2" d="M27.1,0.22c0,0-0.1,0.03-0.29,0.07C26.62,0.34,26.35,0.42,26,0.52
		c-0.35,0.1-0.77,0.23-1.25,0.38c-0.48,0.15-1.02,0.34-1.6,0.54c-0.29,0.11-0.59,0.21-0.9,0.34c-0.16,0.06-0.31,0.12-0.47,0.18
		c-0.16,0.06-0.32,0.13-0.48,0.19c-0.66,0.26-1.34,0.57-2.04,0.88c-0.7,0.32-1.41,0.68-2.11,1.07c-0.36,0.18-0.7,0.4-1.06,0.6
		c-0.35,0.21-0.69,0.43-1.04,0.65c-0.68,0.45-1.36,0.91-1.98,1.41C12.9,6.88,12.74,7,12.59,7.12c-0.15,0.13-0.3,0.26-0.45,0.38
		c-0.15,0.13-0.3,0.25-0.44,0.38c-0.14,0.13-0.28,0.27-0.42,0.4c-0.29,0.26-0.53,0.54-0.79,0.8c-0.26,0.26-0.49,0.54-0.72,0.8
		c-0.24,0.26-0.44,0.54-0.64,0.8c-0.1,0.13-0.21,0.25-0.3,0.38c-0.09,0.13-0.18,0.26-0.27,0.39c-0.36,0.5-0.64,0.99-0.91,1.41
		c-0.12,0.22-0.23,0.43-0.33,0.62c-0.1,0.19-0.2,0.37-0.28,0.53c-0.15,0.33-0.27,0.59-0.35,0.76c-0.08,0.18-0.13,0.27-0.13,0.27
		s0.03-0.1,0.08-0.29c0.06-0.19,0.13-0.46,0.24-0.81c0.12-0.34,0.28-0.76,0.48-1.23c0.22-0.46,0.45-0.99,0.79-1.53
		c0.08-0.14,0.16-0.28,0.24-0.42c0.09-0.14,0.18-0.28,0.27-0.42c0.19-0.28,0.38-0.58,0.61-0.86c0.22-0.28,0.44-0.59,0.7-0.87
		c0.25-0.29,0.5-0.58,0.79-0.86c0.14-0.14,0.28-0.28,0.42-0.43c0.14-0.14,0.29-0.27,0.44-0.41c0.15-0.14,0.3-0.27,0.45-0.41
		c0.16-0.13,0.32-0.26,0.48-0.39c0.64-0.53,1.33-1.01,2.03-1.48c0.36-0.22,0.71-0.44,1.08-0.65c0.37-0.2,0.72-0.42,1.09-0.6
		c0.18-0.1,0.37-0.19,0.55-0.28c0.19-0.09,0.37-0.17,0.55-0.26c0.36-0.17,0.73-0.33,1.09-0.48c0.36-0.15,0.72-0.3,1.07-0.43
		c0.36-0.13,0.7-0.26,1.04-0.37c0.68-0.24,1.33-0.42,1.94-0.58c0.6-0.16,1.16-0.29,1.66-0.39c0.5-0.11,0.93-0.18,1.29-0.23
		c0.36-0.06,0.65-0.09,0.84-0.11C27,0.23,27.1,0.22,27.1,0.22z"/>
	<path id="XMLID_107_" class="st0" d="M24.71,52.14c0,0,0.1,0.01,0.3,0.03c0.19,0.02,0.48,0.03,0.84,0.06
		c0.36,0.02,0.8,0.04,1.31,0.06c0.5,0.02,1.07,0.02,1.69,0.02c0.31,0,0.63,0,0.96-0.02c0.17,0,0.34-0.01,0.51-0.01
		c0.17-0.01,0.35-0.01,0.52-0.02c0.71-0.03,1.45-0.09,2.21-0.16c0.77-0.08,1.55-0.18,2.35-0.31c0.4-0.06,0.8-0.14,1.2-0.21
		c0.4-0.08,0.8-0.17,1.19-0.27c0.79-0.2,1.58-0.41,2.34-0.68c0.19-0.07,0.38-0.13,0.57-0.2c0.19-0.07,0.37-0.14,0.55-0.21
		c0.18-0.07,0.37-0.14,0.54-0.22c0.18-0.08,0.35-0.16,0.53-0.23c0.35-0.15,0.68-0.33,1.01-0.49c0.33-0.15,0.64-0.35,0.95-0.52
		c0.31-0.17,0.59-0.36,0.87-0.54c0.14-0.09,0.28-0.17,0.41-0.26c0.13-0.09,0.26-0.19,0.38-0.28c0.51-0.35,0.93-0.72,1.32-1.03
		c0.19-0.16,0.35-0.33,0.52-0.48c0.16-0.15,0.31-0.28,0.44-0.41c0.25-0.26,0.45-0.46,0.58-0.6c0.14-0.14,0.21-0.21,0.21-0.21
		s-0.06,0.08-0.17,0.24c-0.11,0.16-0.28,0.39-0.5,0.69c-0.23,0.28-0.52,0.62-0.86,1c-0.36,0.36-0.76,0.78-1.25,1.18
		c-0.12,0.1-0.24,0.21-0.37,0.32c-0.13,0.1-0.26,0.2-0.4,0.31c-0.27,0.2-0.55,0.42-0.86,0.61c-0.31,0.19-0.61,0.41-0.95,0.59
		c-0.33,0.19-0.67,0.38-1.03,0.55c-0.18,0.09-0.36,0.17-0.54,0.26c-0.18,0.09-0.37,0.16-0.56,0.24c-0.19,0.08-0.38,0.16-0.57,0.24
		c-0.19,0.07-0.39,0.14-0.58,0.21c-0.78,0.29-1.59,0.52-2.41,0.73c-0.41,0.09-0.82,0.18-1.23,0.26c-0.41,0.07-0.82,0.15-1.23,0.21
		c-0.2,0.03-0.41,0.06-0.61,0.09c-0.2,0.02-0.41,0.04-0.61,0.06c-0.4,0.05-0.8,0.07-1.19,0.1c-0.39,0.02-0.78,0.04-1.15,0.05
		c-0.38,0-0.75,0.01-1.11,0c-0.72,0-1.4-0.04-2.02-0.09c-0.62-0.05-1.19-0.11-1.7-0.18c-0.5-0.06-0.94-0.14-1.3-0.21
		c-0.36-0.06-0.64-0.13-0.83-0.17C24.81,52.16,24.71,52.14,24.71,52.14z"/>
	<path id="XMLID_106_" class="st1" d="M14.69,14.15c0,0,0.06-0.08,0.18-0.23c0.12-0.15,0.29-0.37,0.52-0.63
		c0.23-0.27,0.52-0.59,0.86-0.94c0.34-0.35,0.73-0.75,1.19-1.15c0.22-0.21,0.46-0.41,0.71-0.63c0.25-0.21,0.51-0.42,0.78-0.64
		c0.55-0.43,1.13-0.87,1.77-1.29c0.31-0.22,0.64-0.42,0.97-0.63c0.34-0.2,0.67-0.41,1.02-0.6c0.35-0.19,0.7-0.39,1.07-0.56
		c0.18-0.09,0.36-0.18,0.55-0.27l0.55-0.25c0.37-0.17,0.75-0.31,1.13-0.47c0.38-0.15,0.76-0.28,1.14-0.41
		c0.38-0.12,0.76-0.24,1.14-0.34c0.38-0.09,0.75-0.2,1.13-0.28c0.37-0.07,0.74-0.16,1.1-0.22c0.36-0.05,0.72-0.11,1.06-0.15
		c0.35-0.03,0.69-0.06,1.01-0.09c0.33-0.02,0.65-0.02,0.95-0.04c0.3-0.01,0.59-0.01,0.87,0c0.28,0.01,0.54,0.01,0.78,0.03
		c0.49,0.04,0.92,0.08,1.27,0.13c0.35,0.05,0.62,0.1,0.81,0.13c0.19,0.03,0.28,0.05,0.28,0.05s-0.1,0-0.29,0
		c-0.19,0-0.46,0-0.81-0.01c-0.35-0.01-0.78,0.02-1.26,0.03c-0.24,0.01-0.5,0.04-0.77,0.05c-0.27,0.02-0.56,0.03-0.85,0.07
		c-0.29,0.04-0.6,0.06-0.92,0.11c-0.32,0.05-0.64,0.1-0.98,0.15c-0.34,0.06-0.68,0.14-1.03,0.21c-0.35,0.08-0.7,0.17-1.06,0.26
		c-0.36,0.09-0.72,0.21-1.08,0.31c-0.36,0.12-0.73,0.24-1.1,0.36c-0.36,0.14-0.73,0.27-1.1,0.41c-0.36,0.15-0.73,0.29-1.09,0.46
		l-0.54,0.24c-0.18,0.08-0.35,0.17-0.53,0.26c-0.36,0.17-0.7,0.35-1.05,0.54c-0.17,0.09-0.34,0.18-0.51,0.28
		c-0.17,0.09-0.34,0.19-0.5,0.28c-0.33,0.2-0.66,0.38-0.97,0.58c-0.32,0.2-0.62,0.39-0.92,0.59c-0.3,0.19-0.59,0.39-0.87,0.59
		c-0.56,0.39-1.08,0.77-1.56,1.14c-0.47,0.36-0.9,0.71-1.28,1.02c-0.37,0.31-0.7,0.59-0.96,0.82c-0.26,0.23-0.47,0.42-0.6,0.55
		C14.77,14.08,14.69,14.15,14.69,14.15z"/>
	<path id="XMLID_105_" class="st3" d="M46.66,32.94c0,0-0.04,0.09-0.12,0.26c-0.09,0.17-0.21,0.42-0.38,0.72
		c-0.17,0.31-0.39,0.68-0.65,1.09c-0.27,0.41-0.57,0.88-0.93,1.36c-0.18,0.25-0.37,0.5-0.57,0.76c-0.2,0.26-0.42,0.52-0.64,0.79
		c-0.45,0.53-0.94,1.08-1.47,1.62c-0.26,0.27-0.55,0.54-0.83,0.81c-0.29,0.26-0.57,0.54-0.88,0.79c-0.3,0.26-0.61,0.52-0.93,0.77
		c-0.16,0.12-0.32,0.25-0.48,0.37l-0.49,0.36c-0.33,0.24-0.67,0.45-1.01,0.68c-0.34,0.22-0.69,0.42-1.03,0.63
		c-0.35,0.19-0.7,0.39-1.05,0.57c-0.36,0.17-0.7,0.35-1.05,0.5c-0.35,0.15-0.69,0.31-1.04,0.43c-0.35,0.12-0.68,0.25-1.01,0.36
		c-0.33,0.1-0.66,0.2-0.97,0.3c-0.32,0.09-0.63,0.15-0.92,0.23c-0.29,0.08-0.58,0.13-0.85,0.17c-0.27,0.04-0.53,0.1-0.78,0.13
		c-0.49,0.06-0.91,0.11-1.27,0.13c-0.35,0.02-0.63,0.03-0.82,0.04c-0.19,0.01-0.29,0.01-0.29,0.01s0.1-0.02,0.28-0.06
		c0.19-0.04,0.46-0.09,0.8-0.15c0.34-0.06,0.76-0.18,1.23-0.28c0.24-0.06,0.48-0.13,0.75-0.21c0.26-0.08,0.54-0.14,0.82-0.24
		c0.28-0.1,0.58-0.19,0.88-0.29c0.3-0.11,0.61-0.23,0.93-0.35c0.31-0.13,0.63-0.27,0.96-0.41c0.32-0.15,0.65-0.31,0.99-0.46
		c0.33-0.16,0.66-0.35,1-0.52c0.33-0.19,0.66-0.38,1-0.58c0.33-0.21,0.67-0.41,0.99-0.63c0.32-0.22,0.66-0.43,0.97-0.67l0.48-0.34
		c0.16-0.12,0.31-0.24,0.47-0.36c0.32-0.24,0.62-0.49,0.92-0.73c0.15-0.12,0.3-0.25,0.44-0.38c0.15-0.13,0.29-0.25,0.44-0.38
		c0.28-0.26,0.57-0.51,0.83-0.76c0.27-0.26,0.53-0.51,0.78-0.76c0.26-0.25,0.5-0.5,0.74-0.75c0.47-0.5,0.91-0.97,1.3-1.43
		c0.39-0.45,0.74-0.88,1.05-1.25c0.3-0.38,0.56-0.72,0.77-1c0.21-0.28,0.38-0.5,0.48-0.66C46.61,33.02,46.66,32.94,46.66,32.94z"/>
	<path id="XMLID_103_" class="st0" d="M35.97,28.37c-1.41,0.1-2.75-0.27-4.2,0.03c-2.79,0.57-5.12,2.61-5.14,5.57
		c0,1.24,0,2.47,0,3.71c0,1.39,1.13,2.52,2.52,2.52l0,0c1.48,0,2.65-1.27,2.51-2.75C31.34,34.05,31.55,28.69,35.97,28.37z"/>
	<path id="XMLID_102_" class="st2" d="M39.3,32.4c0,1.57-1.27,2.84-2.84,2.84c-1.57,0-2.84-1.27-2.84-2.84
		c0-1.57,1.27-2.84,2.84-2.84C38.03,29.56,39.3,30.83,39.3,32.4z"/>
	<path id="XMLID_101_" class="st3" d="M22.25,22.35c1.41-0.1,2.75,0.27,4.2-0.03c2.79-0.57,5.12-2.61,5.14-5.57
		c0.01-1.24,0-2.47,0-3.71c0-1.39-1.13-2.52-2.52-2.52l0,0c-1.48,0-2.65,1.27-2.51,2.75C26.89,16.67,26.68,22.03,22.25,22.35z"/>
	<path id="XMLID_100_" class="st1" d="M25.69,32.04c-0.1-1.41,0.27-2.75-0.03-4.2c-0.57-2.79-2.61-5.12-5.57-5.14
		c-1.24,0-2.47,0-3.71,0c-1.39,0-2.52,1.13-2.52,2.52l0,0c0,1.48,1.27,2.65,2.75,2.51C20.01,27.41,25.37,27.62,25.69,32.04z"/>
	<path id="XMLID_99_" class="st0" d="M21.7,35.24c-1.57,0-2.84-1.27-2.84-2.84c0-1.57,1.27-2.84,2.84-2.84
		c1.57,0,2.84,1.27,2.84,2.84C24.54,33.97,23.27,35.24,21.7,35.24z"/>
	<path id="XMLID_98_" class="st2" d="M32.48,18.56c0.1,1.41-0.26,2.75,0.03,4.2c0.57,2.79,2.61,5.12,5.57,5.14c1.24,0,2.47,0,3.71,0
		c1.39,0,2.52-1.13,2.52-2.52l0,0c0-1.48-1.27-2.65-2.75-2.51C38.16,23.19,32.8,22.99,32.48,18.56z"/>
	<path id="XMLID_97_" class="st3" d="M36.47,15.49c1.57,0,2.84,1.27,2.84,2.84s-1.27,2.84-2.84,2.84c-1.57,0-2.84-1.27-2.84-2.84
		S34.9,15.49,36.47,15.49z"/>
	<path id="XMLID_96_" class="st1" d="M18.87,18.33c0-1.57,1.27-2.84,2.84-2.84c1.57,0,2.84,1.27,2.84,2.84s-1.27,2.84-2.84,2.84
		C20.14,21.16,18.87,19.89,18.87,18.33z"/>
</g>
</svg>
